# xmcd
#
# Track frame offsets: 
#        150
#        16947
#        36904
#        52094
#        70182
#        85637
#        103429
#        118084
#        135106
#        148012
#        167969
#        185786
#
# Disc length: 2713 seconds
#
# Revision: 0
# Processed by: cddbd v1.5.2PL0 Copyright (c) Steve Scherf et al.
# Submitted via: ExactAudioCopy v1.0b1
#
DISCID=ac0a970c
DTITLE=Mason Douglas - In The Meantime - Volume 2
DYEAR=2010
DGENRE=Country
TTITLE0=Call Me If You Need A Man
TTITLE1=Goin' Nowhere
TTITLE2=God, I Love This Woman
TTITLE3=Mother's Tears
TTITLE4=Still Be Raining
TTITLE5=Some Hurts Don't Heal
TTITLE6=If Only Love Was Enough
TTITLE7=Happy To Be Here
TTITLE8=Runner Up Don't Get 'Er Done
TTITLE9=Life Gets Away
TTITLE10=If You Hear Anyone Ask
TTITLE11=Finally Growing Up
EXTD=
EXTT0=
EXTT1=
EXTT2=
EXTT3=
EXTT4=
EXTT5=
EXTT6=
EXTT7=
EXTT8=
EXTT9=
EXTT10=
EXTT11=
PLAYORDER=
